<svg width="119" height="119" viewBox="0 0 119 119" fill="none" xmlns="http://www.w3.org/2000/svg">
<g opacity="0.3">
<path d="M117.492 1.45923H1.71777V117.233H117.492V1.45923Z" stroke="#DDDDDD" stroke-width="0.651964"/>
<path d="M16.2705 1.13306V117.558" stroke="#DDDDDD" stroke-width="0.651964"/>
<path d="M117.817 16.0123H1.3916" stroke="#DDDDDD" stroke-width="0.651964"/>
<path d="M30.8242 1.13306V117.558" stroke="#DDDDDD" stroke-width="0.651964"/>
<path d="M117.817 30.5648H1.3916" stroke="#DDDDDD" stroke-width="0.651964"/>
<path d="M45.377 1.13306V117.558" stroke="#DDDDDD" stroke-width="0.651964"/>
<path d="M117.817 45.1189H1.3916" stroke="#DDDDDD" stroke-width="0.651964"/>
<path d="M59.9307 1.13306V117.558" stroke="#DDDDDD" stroke-width="0.651964"/>
<path d="M117.817 59.6716H1.3916" stroke="#DDDDDD" stroke-width="0.651964"/>
<path d="M74.4834 1.13306V117.558" stroke="#DDDDDD" stroke-width="0.651964"/>
<path d="M117.817 74.2246H1.3916" stroke="#DDDDDD" stroke-width="0.651964"/>
<path d="M89.0371 1.13306V117.558" stroke="#DDDDDD" stroke-width="0.651964"/>
<path d="M117.817 88.7776H1.3916" stroke="#DDDDDD" stroke-width="0.651964"/>
<path d="M103.59 1.13306V117.558" stroke="#DDDDDD" stroke-width="0.651964"/>
<path d="M117.817 103.331H1.3916" stroke="#DDDDDD" stroke-width="0.651964"/>
</g>
<path d="M33.9902 84.96H30.2646V88.6855H33.9902V84.96Z" fill="#D9D9D9"/>
<path d="M45.7714 103.005H42.0459V106.731H45.7714V103.005Z" fill="#D9D9D9"/>
<path d="M92.6689 98.9307H88.9434V102.656H92.6689V98.9307Z" fill="#D9D9D9"/>
<path d="M106.64 98.9307H102.914V102.656H106.64V98.9307Z" fill="#D9D9D9"/>
<path d="M92.4364 41.3514H88.7109V45.077H92.4364V41.3514Z" fill="#D9D9D9"/>
</svg>
