<svg width="1985" height="220" viewBox="0 0 1985 220" fill="none" xmlns="http://www.w3.org/2000/svg">
<g style="mix-blend-mode:hard-light" opacity="0.1" filter="url(#filter0_d_1_2797)">
<mask id="path-1-outside-1_1_2797" maskUnits="userSpaceOnUse" x="4" y="0" width="1977" height="212" fill="black">
<rect fill="white" x="4" width="1977" height="212"/>
<path d="M171.567 67.608C161.487 46.872 141.327 36.504 111.087 36.504C65.8709 36.504 43.4069 60.12 43.4069 105.912C43.4069 151.128 65.5829 174.744 111.087 174.744C139.887 174.744 158.031 165.24 168.975 147.096V120.6H94.3829V84.6L210.447 85.464V207H168.975V193.464C155.439 204.984 133.839 210.456 111.087 210.456C47.7269 210.456 5.3909 171.288 5.3909 105.912C5.3909 39.96 48.3029 1.07999 111.087 1.07999C160.911 1.07999 198.351 24.984 211.887 67.32L171.567 67.608ZM217.66 207V5.39999H252.508V207H217.66ZM334.479 210.168C285.231 210.168 254.991 181.08 254.991 133.848C254.991 85.752 286.959 56.952 335.343 56.952C383.727 56.952 414.831 85.752 414.831 133.272C414.831 180.792 383.439 210.168 334.479 210.168ZM290.703 133.56C290.703 160.92 304.527 177.336 334.479 177.336C365.007 177.336 379.119 160.632 379.119 133.272C379.119 106.2 365.007 89.496 334.479 89.496C304.527 89.496 290.703 105.912 290.703 133.56ZM494.669 210.168C478.253 210.168 464.141 203.256 452.045 194.04V207H417.197V5.39999H452.045V73.944C463.565 62.424 478.541 56.952 497.549 56.952C543.917 56.952 570.989 87.48 570.989 132.984C570.989 180.216 541.613 210.168 494.669 210.168ZM451.757 138.456C451.757 164.376 465.869 177.336 492.941 177.336C519.149 177.336 534.701 163.512 534.701 132.984C534.701 102.456 517.997 89.496 494.669 89.496C468.461 89.496 451.757 104.184 451.757 127.224V138.456ZM573.103 109.368C574.543 72.504 597.295 57.528 640.495 56.952C687.151 56.664 706.735 77.112 706.735 113.688V207H671.887V192.6C663.535 201.528 651.439 209.592 626.959 209.304C591.247 208.728 565.903 193.176 565.903 160.92C565.903 120.6 606.511 114.552 650.287 114.264L671.599 113.976V111.96C671.599 95.544 666.415 88.92 640.495 88.92C616.303 88.92 609.967 94.968 609.103 109.368H573.103ZM601.039 161.784C601.039 171.576 607.087 177.624 629.263 177.624C656.335 177.624 671.599 169.848 671.599 151.416V141.048L652.303 141.624C610.255 143.064 601.039 148.248 601.039 161.784ZM710.953 207V5.39999H745.801V207H710.953ZM817.116 207V5.39999H899.484C942.396 5.39999 983.292 18.36 983.292 68.76C983.292 114.84 947.868 133.848 898.908 133.848H854.556V207H817.116ZM854.556 98.424H898.908C937.212 98.424 945.564 90.072 945.564 69.048C945.564 48.024 936.924 40.824 898.62 40.824H854.556V98.424ZM985.791 207V63H1020.64V76.248C1033.89 60.408 1060.67 57.24 1081.69 61.848L1077.09 94.68C1051.17 88.632 1020.64 95.256 1020.64 121.752V207H985.791ZM1188.79 118.872C1187.06 100.152 1171.8 89.496 1147.89 89.496C1124.56 89.496 1109.01 99.864 1107.86 118.872H1188.79ZM1068.4 133.848C1068.4 85.752 1100.37 56.952 1148.76 56.952C1197.14 56.952 1228.53 85.752 1228.24 133.272L1227.96 145.656H1106.13C1108.15 164.952 1122.26 177.336 1147.89 177.336C1170.64 177.336 1183.32 169.56 1188.5 154.872H1225.94C1216.15 192.312 1186.48 210.168 1147.89 210.168C1098.64 210.168 1068.4 181.08 1068.4 133.848ZM1263.8 161.208C1264.95 172.152 1274.17 177.336 1295.48 177.624C1316.79 177.624 1329.46 174.168 1329.46 163.224C1329.46 155.736 1326.58 149.4 1302.68 146.232L1285.97 143.928C1246.23 138.744 1228.09 130.104 1228.09 101.88C1228.09 75.096 1252.85 56.952 1293.75 56.952C1334.93 56.952 1357.97 74.808 1361.14 102.744H1326.29C1325.14 92.664 1314.2 89.208 1293.75 88.92C1275.32 89.208 1262.36 93.24 1262.36 102.168C1262.36 109.944 1266.68 114.264 1287.99 117.144L1307 119.448C1347.32 124.344 1364.89 134.424 1364.89 163.224C1364.89 192.312 1340.41 209.88 1295.48 210.168C1250.84 209.88 1230.1 191.448 1228.37 161.208H1263.8ZM1479.17 118.872C1477.44 100.152 1462.18 89.496 1438.27 89.496C1414.94 89.496 1399.39 99.864 1398.24 118.872H1479.17ZM1358.78 133.848C1358.78 85.752 1390.75 56.952 1439.14 56.952C1487.52 56.952 1518.91 85.752 1518.62 133.272L1518.34 145.656H1396.51C1398.53 164.952 1412.64 177.336 1438.27 177.336C1461.02 177.336 1473.7 169.56 1478.88 154.872H1516.32C1506.53 192.312 1476.86 210.168 1438.27 210.168C1389.02 210.168 1358.78 181.08 1358.78 133.848ZM1520.99 207V62.136H1555.84V75.96C1565.34 63.576 1585.21 56.952 1602.78 56.952C1641.66 56.952 1662.11 77.112 1662.11 112.536V207H1626.97V120.6C1626.97 100.728 1620.93 90.072 1599.33 90.072C1581.76 90.072 1555.84 98.424 1555.84 120.024V207H1520.99ZM1820.24 145.368C1813.33 189.72 1781.65 210.168 1740.47 210.168C1691.22 210.168 1660.98 181.08 1660.98 133.848C1660.98 85.752 1692.95 56.952 1741.33 56.952C1785.39 56.952 1815.06 80.568 1819.67 121.464H1784.24C1780.79 100.44 1764.08 89.496 1740.47 89.496C1710.51 89.496 1696.69 105.912 1696.69 133.56C1696.69 160.92 1710.51 177.336 1740.47 177.336C1766.39 177.336 1781.07 164.664 1784.24 145.368H1820.24ZM1940.47 118.872C1938.75 100.152 1923.48 89.496 1899.58 89.496C1876.25 89.496 1860.7 99.864 1859.55 118.872H1940.47ZM1820.09 133.848C1820.09 85.752 1852.06 56.952 1900.44 56.952C1948.83 56.952 1980.22 85.752 1979.93 133.272L1979.64 145.656H1857.82C1859.83 164.952 1873.95 177.336 1899.58 177.336C1922.33 177.336 1935 169.56 1940.19 154.872H1977.63C1967.83 192.312 1938.17 210.168 1899.58 210.168C1850.33 210.168 1820.09 181.08 1820.09 133.848Z"/>
</mask>
<path d="M171.567 67.608C161.487 46.872 141.327 36.504 111.087 36.504C65.8709 36.504 43.4069 60.12 43.4069 105.912C43.4069 151.128 65.5829 174.744 111.087 174.744C139.887 174.744 158.031 165.24 168.975 147.096V120.6H94.3829V84.6L210.447 85.464V207H168.975V193.464C155.439 204.984 133.839 210.456 111.087 210.456C47.7269 210.456 5.3909 171.288 5.3909 105.912C5.3909 39.96 48.3029 1.07999 111.087 1.07999C160.911 1.07999 198.351 24.984 211.887 67.32L171.567 67.608ZM217.66 207V5.39999H252.508V207H217.66ZM334.479 210.168C285.231 210.168 254.991 181.08 254.991 133.848C254.991 85.752 286.959 56.952 335.343 56.952C383.727 56.952 414.831 85.752 414.831 133.272C414.831 180.792 383.439 210.168 334.479 210.168ZM290.703 133.56C290.703 160.92 304.527 177.336 334.479 177.336C365.007 177.336 379.119 160.632 379.119 133.272C379.119 106.2 365.007 89.496 334.479 89.496C304.527 89.496 290.703 105.912 290.703 133.56ZM494.669 210.168C478.253 210.168 464.141 203.256 452.045 194.04V207H417.197V5.39999H452.045V73.944C463.565 62.424 478.541 56.952 497.549 56.952C543.917 56.952 570.989 87.48 570.989 132.984C570.989 180.216 541.613 210.168 494.669 210.168ZM451.757 138.456C451.757 164.376 465.869 177.336 492.941 177.336C519.149 177.336 534.701 163.512 534.701 132.984C534.701 102.456 517.997 89.496 494.669 89.496C468.461 89.496 451.757 104.184 451.757 127.224V138.456ZM573.103 109.368C574.543 72.504 597.295 57.528 640.495 56.952C687.151 56.664 706.735 77.112 706.735 113.688V207H671.887V192.6C663.535 201.528 651.439 209.592 626.959 209.304C591.247 208.728 565.903 193.176 565.903 160.92C565.903 120.6 606.511 114.552 650.287 114.264L671.599 113.976V111.96C671.599 95.544 666.415 88.92 640.495 88.92C616.303 88.92 609.967 94.968 609.103 109.368H573.103ZM601.039 161.784C601.039 171.576 607.087 177.624 629.263 177.624C656.335 177.624 671.599 169.848 671.599 151.416V141.048L652.303 141.624C610.255 143.064 601.039 148.248 601.039 161.784ZM710.953 207V5.39999H745.801V207H710.953ZM817.116 207V5.39999H899.484C942.396 5.39999 983.292 18.36 983.292 68.76C983.292 114.84 947.868 133.848 898.908 133.848H854.556V207H817.116ZM854.556 98.424H898.908C937.212 98.424 945.564 90.072 945.564 69.048C945.564 48.024 936.924 40.824 898.62 40.824H854.556V98.424ZM985.791 207V63H1020.64V76.248C1033.89 60.408 1060.67 57.24 1081.69 61.848L1077.09 94.68C1051.17 88.632 1020.64 95.256 1020.64 121.752V207H985.791ZM1188.79 118.872C1187.06 100.152 1171.8 89.496 1147.89 89.496C1124.56 89.496 1109.01 99.864 1107.86 118.872H1188.79ZM1068.4 133.848C1068.4 85.752 1100.37 56.952 1148.76 56.952C1197.14 56.952 1228.53 85.752 1228.24 133.272L1227.96 145.656H1106.13C1108.15 164.952 1122.26 177.336 1147.89 177.336C1170.64 177.336 1183.32 169.56 1188.5 154.872H1225.94C1216.15 192.312 1186.48 210.168 1147.89 210.168C1098.64 210.168 1068.4 181.08 1068.4 133.848ZM1263.8 161.208C1264.95 172.152 1274.17 177.336 1295.48 177.624C1316.79 177.624 1329.46 174.168 1329.46 163.224C1329.46 155.736 1326.58 149.4 1302.68 146.232L1285.97 143.928C1246.23 138.744 1228.09 130.104 1228.09 101.88C1228.09 75.096 1252.85 56.952 1293.75 56.952C1334.93 56.952 1357.97 74.808 1361.14 102.744H1326.29C1325.14 92.664 1314.2 89.208 1293.75 88.92C1275.32 89.208 1262.36 93.24 1262.36 102.168C1262.36 109.944 1266.68 114.264 1287.99 117.144L1307 119.448C1347.32 124.344 1364.89 134.424 1364.89 163.224C1364.89 192.312 1340.41 209.88 1295.48 210.168C1250.84 209.88 1230.1 191.448 1228.37 161.208H1263.8ZM1479.17 118.872C1477.44 100.152 1462.18 89.496 1438.27 89.496C1414.94 89.496 1399.39 99.864 1398.24 118.872H1479.17ZM1358.78 133.848C1358.78 85.752 1390.75 56.952 1439.14 56.952C1487.52 56.952 1518.91 85.752 1518.62 133.272L1518.34 145.656H1396.51C1398.53 164.952 1412.64 177.336 1438.27 177.336C1461.02 177.336 1473.7 169.56 1478.88 154.872H1516.32C1506.53 192.312 1476.86 210.168 1438.27 210.168C1389.02 210.168 1358.78 181.08 1358.78 133.848ZM1520.99 207V62.136H1555.84V75.96C1565.34 63.576 1585.21 56.952 1602.78 56.952C1641.66 56.952 1662.11 77.112 1662.11 112.536V207H1626.97V120.6C1626.97 100.728 1620.93 90.072 1599.33 90.072C1581.76 90.072 1555.84 98.424 1555.84 120.024V207H1520.99ZM1820.24 145.368C1813.33 189.72 1781.65 210.168 1740.47 210.168C1691.22 210.168 1660.98 181.08 1660.98 133.848C1660.98 85.752 1692.95 56.952 1741.33 56.952C1785.39 56.952 1815.06 80.568 1819.67 121.464H1784.24C1780.79 100.44 1764.08 89.496 1740.47 89.496C1710.51 89.496 1696.69 105.912 1696.69 133.56C1696.69 160.92 1710.51 177.336 1740.47 177.336C1766.39 177.336 1781.07 164.664 1784.24 145.368H1820.24ZM1940.47 118.872C1938.75 100.152 1923.48 89.496 1899.58 89.496C1876.25 89.496 1860.7 99.864 1859.55 118.872H1940.47ZM1820.09 133.848C1820.09 85.752 1852.06 56.952 1900.44 56.952C1948.83 56.952 1980.22 85.752 1979.93 133.272L1979.64 145.656H1857.82C1859.83 164.952 1873.95 177.336 1899.58 177.336C1922.33 177.336 1935 169.56 1940.19 154.872H1977.63C1967.83 192.312 1938.17 210.168 1899.58 210.168C1850.33 210.168 1820.09 181.08 1820.09 133.848Z" fill="url(#paint0_linear_1_2797)" shape-rendering="crispEdges"/>
<path d="M171.567 67.608L170.668 68.0452L170.943 68.6125L171.574 68.608L171.567 67.608ZM168.975 147.096L169.831 147.612L169.975 147.374V147.096H168.975ZM168.975 120.6H169.975V119.6H168.975V120.6ZM94.3829 120.6H93.3829V121.6H94.3829V120.6ZM94.3829 84.6L94.3903 83.6L93.3829 83.5925V84.6H94.3829ZM210.447 85.464H211.447V84.4714L210.454 84.464L210.447 85.464ZM210.447 207V208H211.447V207H210.447ZM168.975 207H167.975V208H168.975V207ZM168.975 193.464H169.975V191.3L168.327 192.702L168.975 193.464ZM211.887 67.32L211.894 68.32L213.253 68.3103L212.839 67.0155L211.887 67.32ZM171.567 67.608L172.466 67.1708C162.165 45.9796 141.569 35.504 111.087 35.504V36.504V37.504C141.085 37.504 160.809 47.7644 170.668 68.0452L171.567 67.608ZM111.087 36.504V35.504C88.3135 35.504 71.0916 41.4533 59.5728 53.3401C48.0595 65.2212 42.4069 82.8665 42.4069 105.912H43.4069H44.4069C44.4069 83.1655 49.9863 66.1068 61.009 54.7319C72.0262 43.3627 88.6443 37.504 111.087 37.504V36.504ZM43.4069 105.912H42.4069C42.4069 128.669 47.9875 146.172 59.4658 157.981C70.9492 169.796 88.1711 175.744 111.087 175.744V174.744V173.744C88.4987 173.744 71.8806 167.884 60.9 156.587C49.9143 145.284 44.4069 128.371 44.4069 105.912H43.4069ZM111.087 174.744V175.744C140.141 175.744 158.662 166.13 169.831 147.612L168.975 147.096L168.119 146.579C157.4 164.35 139.632 173.744 111.087 173.744V174.744ZM168.975 147.096H169.975V120.6H168.975H167.975V147.096H168.975ZM168.975 120.6V119.6H94.3829V120.6V121.6H168.975V120.6ZM94.3829 120.6H95.3829V84.6H94.3829H93.3829V120.6H94.3829ZM94.3829 84.6L94.3755 85.6L210.439 86.464L210.447 85.464L210.454 84.464L94.3903 83.6L94.3829 84.6ZM210.447 85.464H209.447V207H210.447H211.447V85.464H210.447ZM210.447 207V206H168.975V207V208H210.447V207ZM168.975 207H169.975V193.464H168.975H167.975V207H168.975ZM168.975 193.464L168.327 192.702C155.046 204.005 133.722 209.456 111.087 209.456V210.456V211.456C133.955 211.456 155.832 205.963 169.623 194.226L168.975 193.464ZM111.087 210.456V209.456C79.6132 209.456 53.4575 199.731 35.1755 181.982C16.8976 164.238 6.3909 138.378 6.3909 105.912H5.3909H4.3909C4.3909 138.822 15.0522 165.234 33.7823 183.417C52.5083 201.597 79.2006 211.456 111.087 211.456V210.456ZM5.3909 105.912H6.3909C6.3909 73.1596 17.0405 47.2279 35.3901 29.4828C53.7446 11.733 79.9012 2.07999 111.087 2.07999V1.07999V0.0799904C79.4886 0.0799904 52.7972 9.86695 33.9997 28.0451C15.1973 46.2281 4.3909 72.7123 4.3909 105.912H5.3909ZM111.087 1.07999V2.07999C160.566 2.07999 197.556 25.7829 210.934 67.6245L211.887 67.32L212.839 67.0155C199.145 24.1851 161.256 0.0799904 111.087 0.0799904V1.07999ZM211.887 67.32L211.88 66.32L171.56 66.608L171.567 67.608L171.574 68.608L211.894 68.32L211.887 67.32ZM217.66 207H216.66V208H217.66V207ZM217.66 5.39999V4.39999H216.66V5.39999H217.66ZM252.508 5.39999H253.508V4.39999H252.508V5.39999ZM252.508 207V208H253.508V207H252.508ZM217.66 207H218.66V5.39999H217.66H216.66V207H217.66ZM217.66 5.39999V6.39999H252.508V5.39999V4.39999H217.66V5.39999ZM252.508 5.39999H251.508V207H252.508H253.508V5.39999H252.508ZM252.508 207V206H217.66V207V208H252.508V207ZM334.479 210.168V209.168C310.05 209.168 290.449 201.957 276.96 188.999C263.475 176.046 255.991 157.245 255.991 133.848H254.991H253.991C253.991 157.683 261.626 177.042 275.574 190.441C289.517 203.835 309.659 211.168 334.479 211.168V210.168ZM254.991 133.848H255.991C255.991 110.03 263.9 91.0861 277.708 78.0922C291.524 65.0912 311.347 57.952 335.343 57.952V56.952V55.952C310.955 55.952 290.602 63.2128 276.338 76.6357C262.066 90.0658 253.991 109.57 253.991 133.848H254.991ZM335.343 56.952V57.952C359.338 57.952 378.943 65.0907 392.542 78.0168C406.135 90.9369 413.831 109.737 413.831 133.272H414.831H415.831C415.831 109.287 407.975 89.9271 393.92 76.5672C379.871 63.2133 359.732 55.952 335.343 55.952V56.952ZM414.831 133.272H413.831C413.831 156.804 406.064 175.75 392.326 188.815C378.582 201.886 358.76 209.168 334.479 209.168V210.168V211.168C359.158 211.168 379.512 203.762 393.704 190.265C407.902 176.762 415.831 157.26 415.831 133.272H414.831ZM290.703 133.56H289.703C289.703 147.396 293.199 158.627 300.636 166.399C308.082 174.18 319.324 178.336 334.479 178.336V177.336V176.336C319.681 176.336 309.036 172.284 302.081 165.017C295.119 157.741 291.703 147.084 291.703 133.56H290.703ZM334.479 177.336V178.336C349.921 178.336 361.377 174.108 368.966 166.259C376.548 158.416 380.119 147.113 380.119 133.272H379.119H378.119C378.119 146.791 374.633 157.52 367.528 164.869C360.429 172.212 349.565 176.336 334.479 176.336V177.336ZM379.119 133.272H380.119C380.119 119.572 376.547 108.341 368.964 100.535C361.376 92.7239 349.921 88.496 334.479 88.496V89.496V90.496C349.565 90.496 360.43 94.6201 367.53 101.929C374.635 109.243 378.119 119.9 378.119 133.272H379.119ZM334.479 89.496V88.496C319.324 88.496 308.08 92.6525 300.635 100.47C293.198 108.279 289.703 119.582 289.703 133.56H290.703H291.703C291.703 119.89 295.12 109.161 302.083 101.85C309.037 94.5475 319.681 90.496 334.479 90.496V89.496ZM452.045 194.04L452.651 193.245L451.045 192.021V194.04H452.045ZM452.045 207V208H453.045V207H452.045ZM417.197 207H416.197V208H417.197V207ZM417.197 5.39999V4.39999H416.197V5.39999H417.197ZM452.045 5.39999H453.045V4.39999H452.045V5.39999ZM452.045 73.944H451.045V76.3582L452.752 74.6511L452.045 73.944ZM494.669 210.168V209.168C478.549 209.168 464.646 202.384 452.651 193.245L452.045 194.04L451.439 194.835C463.636 204.128 477.957 211.168 494.669 211.168V210.168ZM452.045 194.04H451.045V207H452.045H453.045V194.04H452.045ZM452.045 207V206H417.197V207V208H452.045V207ZM417.197 207H418.197V5.39999H417.197H416.197V207H417.197ZM417.197 5.39999V6.39999H452.045V5.39999V4.39999H417.197V5.39999ZM452.045 5.39999H451.045V73.944H452.045H453.045V5.39999H452.045ZM452.045 73.944L452.752 74.6511C464.049 63.3548 478.75 57.952 497.549 57.952V56.952V55.952C478.332 55.952 463.082 61.4932 451.338 73.2369L452.045 73.944ZM497.549 56.952V57.952C520.505 57.952 538.585 65.5026 550.93 78.5902C563.282 91.6855 569.989 110.428 569.989 132.984H570.989H571.989C571.989 110.036 565.161 90.7625 552.385 77.2178C539.601 63.6654 520.961 55.952 497.549 55.952V56.952ZM570.989 132.984H569.989C569.989 156.391 562.714 175.416 549.721 188.586C536.73 201.754 517.924 209.168 494.669 209.168V210.168V211.168C518.358 211.168 537.712 203.606 551.145 189.99C564.576 176.376 571.989 156.809 571.989 132.984H570.989ZM451.757 138.456H450.757C450.757 151.593 454.337 161.618 461.513 168.346C468.678 175.062 479.261 178.336 492.941 178.336V177.336V176.336C479.549 176.336 469.54 173.13 462.881 166.886C456.233 160.654 452.757 151.239 452.757 138.456H451.757ZM492.941 177.336V178.336C506.213 178.336 516.949 174.834 524.362 167.31C531.772 159.788 535.701 148.407 535.701 132.984H534.701H533.701C533.701 148.089 529.855 158.884 522.937 165.906C516.021 172.926 505.878 176.336 492.941 176.336V177.336ZM534.701 132.984H535.701C535.701 117.542 531.473 106.381 524.138 99.0831C516.806 91.788 506.512 88.496 494.669 88.496V89.496V90.496C506.154 90.496 515.876 93.684 522.728 100.501C529.577 107.315 533.701 117.898 533.701 132.984H534.701ZM494.669 89.496V88.496C481.384 88.496 470.401 92.2199 462.725 98.969C455.035 105.73 450.757 115.447 450.757 127.224H451.757H452.757C452.757 115.961 456.831 106.814 464.045 100.471C471.273 94.1161 481.746 90.496 494.669 90.496V89.496ZM451.757 127.224H450.757V138.456H451.757H452.757V127.224H451.757ZM573.103 109.368L572.104 109.329L572.064 110.368H573.103V109.368ZM640.495 56.952L640.489 55.952L640.482 55.9521L640.495 56.952ZM706.735 207V208H707.735V207H706.735ZM671.887 207H670.887V208H671.887V207ZM671.887 192.6H672.887V190.067L671.157 191.917L671.887 192.6ZM626.959 209.304L626.943 210.304L626.948 210.304L626.959 209.304ZM650.287 114.264L650.294 115.264L650.301 115.264L650.287 114.264ZM671.599 113.976L671.613 114.976L672.599 114.963V113.976H671.599ZM609.103 109.368V110.368H610.045L610.102 109.428L609.103 109.368ZM671.599 141.048H672.599V140.018L671.57 140.048L671.599 141.048ZM652.303 141.624L652.274 140.624L652.269 140.625L652.303 141.624ZM573.103 109.368L574.103 109.407C574.814 91.1892 580.774 78.5499 591.738 70.3529C602.756 62.1157 618.99 58.2388 640.509 57.9519L640.495 56.952L640.482 55.9521C618.801 56.2412 602.058 60.1403 590.541 68.7511C578.969 77.4021 572.833 90.6828 572.104 109.329L573.103 109.368ZM640.495 56.952L640.502 57.952C663.706 57.8087 679.976 62.8262 690.443 72.2395C700.889 81.6346 705.735 95.5726 705.735 113.688H706.735H707.735C707.735 95.2274 702.789 80.6534 691.78 70.7524C680.791 60.8698 663.941 55.8073 640.489 55.952L640.495 56.952ZM706.735 113.688H705.735V207H706.735H707.735V113.688H706.735ZM706.735 207V206H671.887V207V208H706.735V207ZM671.887 207H672.887V192.6H671.887H670.887V207H671.887ZM671.887 192.6L671.157 191.917C667.048 196.309 662.044 200.463 655.073 203.491C648.097 206.521 639.098 208.447 626.971 208.304L626.959 209.304L626.948 210.304C639.301 210.449 648.589 208.487 655.87 205.325C663.154 202.161 668.375 197.819 672.618 193.283L671.887 192.6ZM626.959 209.304L626.976 208.304C609.241 208.018 594.208 204.013 583.634 196.188C573.104 188.395 566.903 176.749 566.903 160.92H565.903H564.903C564.903 177.347 571.375 189.605 582.445 197.796C593.471 205.955 608.966 210.014 626.943 210.304L626.959 209.304ZM565.903 160.92H566.903C566.903 151.016 569.394 143.291 573.744 137.245C578.1 131.191 584.376 126.745 592.068 123.501C607.492 116.998 628.408 115.408 650.294 115.264L650.287 114.264L650.281 113.264C628.391 113.408 607.115 114.986 591.291 121.659C583.359 125.003 576.747 129.647 572.121 136.076C567.489 142.513 564.903 150.664 564.903 160.92H565.903ZM650.287 114.264L650.301 115.264L671.613 114.976L671.599 113.976L671.586 112.976L650.274 113.264L650.287 114.264ZM671.599 113.976H672.599V111.96H671.599H670.599V113.976H671.599ZM671.599 111.96H672.599C672.599 103.703 671.31 97.5235 666.4 93.5098C661.567 89.5589 653.463 87.92 640.495 87.92V88.92V89.92C653.448 89.92 660.896 91.593 665.135 95.0582C669.296 98.4604 670.599 103.801 670.599 111.96H671.599ZM640.495 88.92V87.92C628.376 87.92 620.466 89.422 615.477 92.9256C610.394 96.4955 608.545 101.985 608.105 109.308L609.103 109.368L610.102 109.428C610.526 102.351 612.277 97.6165 616.626 94.5623C621.069 91.442 628.423 89.92 640.495 89.92V88.92ZM609.103 109.368V108.368H573.103V109.368V110.368H609.103V109.368ZM601.039 161.784H600.039C600.039 166.922 601.651 171.251 606.297 174.219C610.832 177.115 618.131 178.624 629.263 178.624V177.624V176.624C618.22 176.624 611.407 175.109 607.374 172.533C603.452 170.029 602.039 166.438 602.039 161.784H601.039ZM629.263 177.624V178.624C642.861 178.624 653.661 176.677 661.092 172.293C668.609 167.858 672.599 160.971 672.599 151.416H671.599H670.599C670.599 160.293 666.958 166.51 660.075 170.571C653.106 174.683 642.738 176.624 629.263 176.624V177.624ZM671.599 151.416H672.599V141.048H671.599H670.599V151.416H671.599ZM671.599 141.048L671.57 140.048L652.274 140.624L652.303 141.624L652.333 142.624L671.629 142.048L671.599 141.048ZM652.303 141.624L652.269 140.625C631.263 141.344 618.269 142.997 610.517 146.246C606.608 147.884 603.952 149.959 602.291 152.593C600.633 155.221 600.039 158.292 600.039 161.784H601.039H602.039C602.039 158.508 602.598 155.855 603.982 153.659C605.363 151.469 607.639 149.62 611.29 148.09C618.658 145.003 631.296 143.344 652.338 142.623L652.303 141.624ZM710.953 207H709.953V208H710.953V207ZM710.953 5.39999V4.39999H709.953V5.39999H710.953ZM745.801 5.39999H746.801V4.39999H745.801V5.39999ZM745.801 207V208H746.801V207H745.801ZM710.953 207H711.953V5.39999H710.953H709.953V207H710.953ZM710.953 5.39999V6.39999H745.801V5.39999V4.39999H710.953V5.39999ZM745.801 5.39999H744.801V207H745.801H746.801V5.39999H745.801ZM745.801 207V206H710.953V207V208H745.801V207ZM817.116 207H816.116V208H817.116V207ZM817.116 5.39999V4.39999H816.116V5.39999H817.116ZM854.556 133.848V132.848H853.556V133.848H854.556ZM854.556 207V208H855.556V207H854.556ZM854.556 98.424H853.556V99.424H854.556V98.424ZM854.556 40.824V39.824H853.556V40.824H854.556ZM817.116 207H818.116V5.39999H817.116H816.116V207H817.116ZM817.116 5.39999V6.39999H899.484V5.39999V4.39999H817.116V5.39999ZM899.484 5.39999V6.39999C920.872 6.39999 941.603 9.63575 956.958 19.0329C972.231 28.3804 982.292 43.8869 982.292 68.76H983.292H984.292C984.292 43.233 973.904 27.0596 958.002 17.327C942.181 7.64423 921.008 4.39999 899.484 4.39999V5.39999ZM983.292 68.76H982.292C982.292 91.5049 973.57 107.458 958.885 117.766C944.145 128.112 923.283 132.848 898.908 132.848V133.848V134.848C923.492 134.848 944.823 130.08 960.034 119.402C975.301 108.686 984.292 92.095 984.292 68.76H983.292ZM898.908 133.848V132.848H854.556V133.848V134.848H898.908V133.848ZM854.556 133.848H853.556V207H854.556H855.556V133.848H854.556ZM854.556 207V206H817.116V207V208H854.556V207ZM854.556 98.424V99.424H898.908V98.424V97.424H854.556V98.424ZM898.908 98.424V99.424C918.058 99.424 930.01 97.3522 937.165 92.4447C944.455 87.4448 946.564 79.6684 946.564 69.048H945.564H944.564C944.564 79.4515 942.496 86.3632 936.034 90.7953C929.438 95.3198 918.062 97.424 898.908 97.424V98.424ZM945.564 69.048H946.564C946.564 58.418 944.378 50.9147 936.993 46.2087C929.771 41.6061 917.756 39.824 898.62 39.824V40.824V41.824C917.788 41.824 929.244 43.6419 935.918 47.8953C942.43 52.0452 944.564 58.6539 944.564 69.048H945.564ZM898.62 40.824V39.824H854.556V40.824V41.824H898.62V40.824ZM854.556 40.824H853.556V98.424H854.556H855.556V40.824H854.556ZM985.791 207H984.791V208H985.791V207ZM985.791 63V62H984.791V63H985.791ZM1020.64 63H1021.64V62H1020.64V63ZM1020.64 76.248H1019.64V79.0024L1021.41 76.8895L1020.64 76.248ZM1081.69 61.848L1082.69 61.987L1082.81 61.0695L1081.91 60.8712L1081.69 61.848ZM1077.09 94.68L1076.86 95.6538L1077.93 95.9025L1078.08 94.819L1077.09 94.68ZM1020.64 207V208H1021.64V207H1020.64ZM985.791 207H986.791V63H985.791H984.791V207H985.791ZM985.791 63V64H1020.64V63V62H985.791V63ZM1020.64 63H1019.64V76.248H1020.64H1021.64V63H1020.64ZM1020.64 76.248L1021.41 76.8895C1027.84 69.1993 1037.61 64.5284 1048.45 62.3606C1059.28 60.194 1071.09 60.5477 1081.48 62.8248L1081.69 61.848L1081.91 60.8712C1071.27 58.5403 1059.18 58.1739 1048.05 60.3994C1036.93 62.6236 1026.69 67.4566 1019.87 75.6064L1020.64 76.248ZM1081.69 61.848L1080.7 61.709L1076.1 94.541L1077.09 94.68L1078.08 94.819L1082.69 61.987L1081.69 61.848ZM1077.09 94.68L1077.31 93.7062C1064.22 90.6506 1049.89 90.7752 1038.78 95.0795C1033.22 97.2356 1028.42 100.455 1025.02 104.884C1021.61 109.324 1019.64 114.924 1019.64 121.752H1020.64H1021.64C1021.64 115.332 1023.48 110.168 1026.61 106.103C1029.74 102.027 1034.2 99.0004 1039.5 96.9445C1050.14 92.8248 1064.03 92.6614 1076.86 95.6538L1077.09 94.68ZM1020.64 121.752H1019.64V207H1020.64H1021.64V121.752H1020.64ZM1020.64 207V206H985.791V207V208H1020.64V207ZM1188.79 118.872V119.872H1189.88L1189.78 118.78L1188.79 118.872ZM1107.86 118.872L1106.86 118.811L1106.8 119.872H1107.86V118.872ZM1228.24 133.272L1229.24 133.295L1229.24 133.287L1229.24 133.278L1228.24 133.272ZM1227.96 145.656V146.656H1228.93L1228.96 145.679L1227.96 145.656ZM1106.13 145.656V144.656H1105.02L1105.14 145.76L1106.13 145.656ZM1188.5 154.872V153.872H1187.79L1187.56 154.539L1188.5 154.872ZM1225.94 154.872L1226.91 155.125L1227.23 153.872H1225.94V154.872ZM1188.79 118.872L1189.78 118.78C1188.89 109.143 1184.5 101.53 1177.24 96.3497C1170 91.189 1159.98 88.496 1147.89 88.496V89.496V90.496C1159.71 90.496 1169.27 93.131 1176.07 97.9783C1182.85 102.806 1186.95 109.881 1187.79 118.964L1188.79 118.872ZM1147.89 89.496V88.496C1136.09 88.496 1126.15 91.1159 1118.98 96.2426C1111.78 101.392 1107.45 109.017 1106.86 118.811L1107.86 118.872L1108.86 118.932C1109.42 109.719 1113.45 102.656 1120.14 97.8694C1126.87 93.0601 1136.36 90.496 1147.89 90.496V89.496ZM1107.86 118.872V119.872H1188.79V118.872V117.872H1107.86V118.872ZM1068.4 133.848H1069.4C1069.4 110.03 1077.31 91.0861 1091.12 78.0922C1104.94 65.0912 1124.76 57.952 1148.76 57.952V56.952V55.952C1124.37 55.952 1104.01 63.2128 1089.75 76.6357C1075.48 90.0658 1067.4 109.57 1067.4 133.848H1068.4ZM1148.76 56.952V57.952C1172.75 57.952 1192.43 65.0911 1206.06 78.0177C1219.69 90.9373 1227.39 109.736 1227.24 133.266L1228.24 133.272L1229.24 133.278C1229.39 109.288 1221.53 89.9267 1207.44 76.5663C1193.35 63.2129 1173.14 55.952 1148.76 55.952V56.952ZM1228.24 133.272L1227.24 133.249L1226.96 145.633L1227.96 145.656L1228.96 145.679L1229.24 133.295L1228.24 133.272ZM1227.96 145.656V144.656H1106.13V145.656V146.656H1227.96V145.656ZM1106.13 145.656L1105.14 145.76C1106.17 155.638 1110.31 163.82 1117.54 169.517C1124.75 175.203 1134.92 178.336 1147.89 178.336V177.336V176.336C1135.23 176.336 1125.53 173.277 1118.77 167.947C1112.03 162.628 1108.11 154.97 1107.13 145.552L1106.13 145.656ZM1147.89 177.336V178.336C1159.37 178.336 1168.42 176.376 1175.28 172.482C1182.16 168.573 1186.78 162.757 1189.44 155.205L1188.5 154.872L1187.56 154.539C1185.04 161.675 1180.72 167.091 1174.29 170.742C1167.83 174.408 1159.16 176.336 1147.89 176.336V177.336ZM1188.5 154.872V155.872H1225.94V154.872V153.872H1188.5V154.872ZM1225.94 154.872L1224.97 154.619C1220.13 173.124 1210.4 186.735 1197.15 195.733C1183.89 204.739 1167.04 209.168 1147.89 209.168V210.168V211.168C1167.34 211.168 1184.61 206.669 1198.28 197.387C1211.96 188.097 1221.95 174.06 1226.91 155.125L1225.94 154.872ZM1147.89 210.168V209.168C1123.46 209.168 1103.86 201.957 1090.37 188.999C1076.89 176.046 1069.4 157.245 1069.4 133.848H1068.4H1067.4C1067.4 157.683 1075.04 177.042 1088.99 190.441C1102.93 203.835 1123.07 211.168 1147.89 211.168V210.168ZM1263.8 161.208L1264.79 161.103L1264.7 160.208H1263.8V161.208ZM1295.48 177.624L1295.46 178.624H1295.48V177.624ZM1302.68 146.232L1302.54 147.223L1302.55 147.223L1302.68 146.232ZM1285.97 143.928L1286.11 142.937L1286.1 142.936L1285.97 143.928ZM1361.14 102.744V103.744H1362.26L1362.13 102.631L1361.14 102.744ZM1326.29 102.744L1325.3 102.858L1325.4 103.744H1326.29V102.744ZM1293.75 88.92L1293.76 87.9201L1293.75 87.9199L1293.73 87.9201L1293.75 88.92ZM1287.99 117.144L1287.86 118.135L1287.87 118.137L1287.99 117.144ZM1307 119.448L1307.12 118.455L1307.12 118.455L1307 119.448ZM1295.48 210.168L1295.47 211.168L1295.48 211.168L1295.48 210.168ZM1228.37 161.208V160.208H1227.31L1227.37 161.265L1228.37 161.208ZM1263.8 161.208L1262.8 161.313C1263.41 167.109 1266.2 171.437 1271.61 174.296C1276.94 177.109 1284.76 178.479 1295.46 178.624L1295.48 177.624L1295.49 176.624C1284.88 176.481 1277.44 175.115 1272.54 172.528C1267.73 169.987 1265.33 166.251 1264.79 161.103L1263.8 161.208ZM1295.48 177.624V178.624C1306.15 178.624 1314.8 177.764 1320.82 175.462C1323.84 174.306 1326.26 172.764 1327.92 170.723C1329.6 168.666 1330.46 166.169 1330.46 163.224H1329.46H1328.46C1328.46 165.751 1327.74 167.79 1326.37 169.459C1325 171.144 1322.92 172.518 1320.1 173.594C1314.45 175.756 1306.11 176.624 1295.48 176.624V177.624ZM1329.46 163.224H1330.46C1330.46 161.295 1330.28 159.358 1329.57 157.501C1328.86 155.627 1327.64 153.887 1325.65 152.322C1321.72 149.23 1314.79 146.829 1302.81 145.241L1302.68 146.232L1302.55 147.223C1314.46 148.803 1320.93 151.153 1324.42 153.894C1326.13 155.245 1327.13 156.691 1327.7 158.21C1328.29 159.746 1328.46 161.409 1328.46 163.224H1329.46ZM1302.68 146.232L1302.81 145.241L1286.11 142.937L1285.97 143.928L1285.84 144.919L1302.54 147.223L1302.68 146.232ZM1285.97 143.928L1286.1 142.936C1266.23 140.344 1251.97 136.906 1242.68 130.712C1238.06 127.633 1234.68 123.877 1232.44 119.197C1230.2 114.507 1229.09 108.831 1229.09 101.88H1228.09H1227.09C1227.09 109.041 1228.24 115.029 1230.64 120.059C1233.05 125.099 1236.69 129.119 1241.57 132.376C1251.29 138.854 1265.97 142.328 1285.84 144.92L1285.97 143.928ZM1228.09 101.88H1229.09C1229.09 88.8378 1235.1 77.9027 1246.15 70.1922C1257.24 62.4605 1273.43 57.952 1293.75 57.952V56.952V55.952C1273.17 55.952 1256.53 60.5155 1245.01 68.5518C1233.46 76.6093 1227.09 88.1382 1227.09 101.88H1228.09ZM1293.75 56.952V57.952C1314.21 57.952 1330.04 62.3885 1341.13 70.1898C1352.18 77.9732 1358.59 89.1584 1360.15 102.857L1361.14 102.744L1362.13 102.631C1360.52 88.3936 1353.83 76.6828 1342.28 68.5542C1330.75 60.4434 1314.47 55.952 1293.75 55.952V56.952ZM1361.14 102.744V101.744H1326.29V102.744V103.744H1361.14V102.744ZM1326.29 102.744L1327.29 102.63C1326.98 99.9276 1326 97.6289 1324.35 95.7185C1322.71 93.8182 1320.45 92.3519 1317.63 91.2307C1312.01 88.9994 1304.01 88.0644 1293.76 87.9201L1293.75 88.92L1293.74 89.9199C1303.94 90.0636 1311.63 91.0006 1316.89 93.0893C1319.5 94.1281 1321.47 95.4338 1322.84 97.0255C1324.21 98.6071 1325.03 100.52 1325.3 102.858L1326.29 102.744ZM1293.75 88.92L1293.73 87.9201C1284.47 88.0648 1276.49 89.1486 1270.78 91.3722C1265.09 93.5897 1261.36 97.086 1261.36 102.168H1262.36H1263.36C1263.36 98.322 1266.11 95.3383 1271.5 93.2358C1276.88 91.1394 1284.59 90.0632 1293.76 89.9199L1293.75 88.92ZM1262.36 102.168H1261.36C1261.36 104.2 1261.64 106.091 1262.46 107.815C1263.29 109.551 1264.64 111.042 1266.64 112.333C1270.59 114.875 1277.19 116.694 1287.86 118.135L1287.99 117.144L1288.12 116.153C1277.47 114.714 1271.26 112.933 1267.72 110.651C1265.98 109.53 1264.91 108.303 1264.27 106.952C1263.62 105.589 1263.36 104.024 1263.36 102.168H1262.36ZM1287.99 117.144L1287.87 118.137L1306.88 120.441L1307 119.448L1307.12 118.455L1288.11 116.151L1287.99 117.144ZM1307 119.448L1306.88 120.441C1327.02 122.887 1341.27 126.612 1350.48 133.186C1359.59 139.686 1363.89 149.063 1363.89 163.224H1364.89H1365.89C1365.89 148.585 1361.4 138.522 1351.64 131.558C1341.99 124.668 1327.29 120.905 1307.12 118.455L1307 119.448ZM1364.89 163.224H1363.89C1363.89 177.444 1357.92 188.797 1346.46 196.672C1334.95 204.58 1317.83 209.025 1295.47 209.168L1295.48 210.168L1295.48 211.168C1318.05 211.023 1335.63 206.54 1347.6 198.32C1359.61 190.067 1365.89 178.092 1365.89 163.224H1364.89ZM1295.48 210.168L1295.48 209.168C1273.28 209.025 1257.18 204.368 1246.44 196.127C1235.73 187.912 1230.22 176.038 1229.37 161.151L1228.37 161.208L1227.37 161.265C1228.25 176.618 1233.97 189.08 1245.22 197.713C1256.44 206.32 1273.03 211.023 1295.47 211.168L1295.48 210.168ZM1228.37 161.208V162.208H1263.8V161.208V160.208H1228.37V161.208ZM1479.17 118.872V119.872H1480.27L1480.16 118.78L1479.17 118.872ZM1398.24 118.872L1397.24 118.811L1397.18 119.872H1398.24V118.872ZM1518.62 133.272L1519.62 133.295L1519.62 133.287L1519.62 133.278L1518.62 133.272ZM1518.34 145.656V146.656H1519.31L1519.34 145.679L1518.34 145.656ZM1396.51 145.656V144.656H1395.4L1395.52 145.76L1396.51 145.656ZM1478.88 154.872V153.872H1478.17L1477.94 154.539L1478.88 154.872ZM1516.32 154.872L1517.29 155.125L1517.62 153.872H1516.32V154.872ZM1479.17 118.872L1480.16 118.78C1479.27 109.143 1474.88 101.53 1467.62 96.3497C1460.38 91.189 1450.36 88.496 1438.27 88.496V89.496V90.496C1450.09 90.496 1459.66 93.131 1466.46 97.9783C1473.23 102.806 1477.33 109.881 1478.17 118.964L1479.17 118.872ZM1438.27 89.496V88.496C1426.47 88.496 1416.53 91.1159 1409.36 96.2426C1402.16 101.392 1397.84 109.017 1397.24 118.811L1398.24 118.872L1399.24 118.932C1399.8 109.719 1403.83 102.656 1410.52 97.8694C1417.25 93.0601 1426.74 90.496 1438.27 90.496V89.496ZM1398.24 118.872V119.872H1479.17V118.872V117.872H1398.24V118.872ZM1358.78 133.848H1359.78C1359.78 110.03 1367.69 91.0861 1381.5 78.0922C1395.32 65.0912 1415.14 57.952 1439.14 57.952V56.952V55.952C1414.75 55.952 1394.4 63.2128 1380.13 76.6357C1365.86 90.0658 1357.78 109.57 1357.78 133.848H1358.78ZM1439.14 56.952V57.952C1463.13 57.952 1482.81 65.0911 1496.44 78.0177C1510.07 90.9373 1517.77 109.736 1517.62 133.266L1518.62 133.272L1519.62 133.278C1519.77 109.288 1511.91 89.9267 1497.82 76.5663C1483.74 63.2129 1463.52 55.952 1439.14 55.952V56.952ZM1518.62 133.272L1517.62 133.249L1517.34 145.633L1518.34 145.656L1519.34 145.679L1519.62 133.295L1518.62 133.272ZM1518.34 145.656V144.656H1396.51V145.656V146.656H1518.34V145.656ZM1396.51 145.656L1395.52 145.76C1396.55 155.638 1400.69 163.82 1407.92 169.517C1415.13 175.203 1425.3 178.336 1438.27 178.336V177.336V176.336C1425.61 176.336 1415.91 173.277 1409.16 167.947C1402.41 162.628 1398.49 154.97 1397.51 145.552L1396.51 145.656ZM1438.27 177.336V178.336C1449.75 178.336 1458.8 176.376 1465.66 172.482C1472.55 168.573 1477.16 162.757 1479.82 155.205L1478.88 154.872L1477.94 154.539C1475.42 161.675 1471.1 167.091 1464.67 170.742C1458.21 174.408 1449.55 176.336 1438.27 176.336V177.336ZM1478.88 154.872V155.872H1516.32V154.872V153.872H1478.88V154.872ZM1516.32 154.872L1515.35 154.619C1510.51 173.124 1500.78 186.735 1487.53 195.733C1474.27 204.739 1457.42 209.168 1438.27 209.168V210.168V211.168C1457.72 211.168 1474.99 206.669 1488.66 197.387C1502.34 188.097 1512.34 174.06 1517.29 155.125L1516.32 154.872ZM1438.27 210.168V209.168C1413.84 209.168 1394.24 201.957 1380.75 188.999C1367.27 176.046 1359.78 157.245 1359.78 133.848H1358.78H1357.78C1357.78 157.683 1365.42 177.042 1379.37 190.441C1393.31 203.835 1413.45 211.168 1438.27 211.168V210.168ZM1520.99 207H1519.99V208H1520.99V207ZM1520.99 62.136V61.136H1519.99V62.136H1520.99ZM1555.84 62.136H1556.84V61.136H1555.84V62.136ZM1555.84 75.96H1554.84V78.9056L1556.63 76.5688L1555.84 75.96ZM1662.11 207V208H1663.11V207H1662.11ZM1626.97 207H1625.97V208H1626.97V207ZM1555.84 207V208H1556.84V207H1555.84ZM1520.99 207H1521.99V62.136H1520.99H1519.99V207H1520.99ZM1520.99 62.136V63.136H1555.84V62.136V61.136H1520.99V62.136ZM1555.84 62.136H1554.84V75.96H1555.84H1556.84V62.136H1555.84ZM1555.84 75.96L1556.63 76.5688C1561.24 70.5678 1568.4 65.9071 1576.65 62.7457C1584.88 59.5871 1594.12 57.952 1602.78 57.952V56.952V55.952C1593.88 55.952 1584.4 57.6289 1575.93 60.8783C1567.47 64.1248 1559.94 68.9682 1555.05 75.3512L1555.84 75.96ZM1602.78 56.952V57.952C1622.06 57.952 1636.61 62.9486 1646.34 72.1852C1656.06 81.4142 1661.11 95.0156 1661.11 112.536H1662.11H1663.11C1663.11 94.6323 1657.94 80.4418 1647.72 70.7348C1637.5 61.0354 1622.39 55.952 1602.78 55.952V56.952ZM1662.11 112.536H1661.11V207H1662.11H1663.11V112.536H1662.11ZM1662.11 207V206H1626.97V207V208H1662.11V207ZM1626.97 207H1627.97V120.6H1626.97H1625.97V207H1626.97ZM1626.97 120.6H1627.97C1627.97 110.61 1626.47 102.678 1622.02 97.2508C1617.54 91.774 1610.27 89.072 1599.33 89.072V90.072V91.072C1609.98 91.072 1616.53 93.698 1620.48 98.5172C1624.46 103.386 1625.97 110.718 1625.97 120.6H1626.97ZM1599.33 90.072V89.072C1590.41 89.072 1579.37 91.1856 1570.51 96.0725C1561.64 100.97 1554.84 108.741 1554.84 120.024H1555.84H1556.84C1556.84 109.707 1563 102.502 1571.48 97.8235C1579.97 93.1344 1590.67 91.072 1599.33 91.072V90.072ZM1555.84 120.024H1554.84V207H1555.84H1556.84V120.024H1555.84ZM1555.84 207V206H1520.99V207V208H1555.84V207ZM1820.24 145.368L1821.23 145.522L1821.41 144.368H1820.24V145.368ZM1819.67 121.464V122.464H1820.79L1820.66 121.352L1819.67 121.464ZM1784.24 121.464L1783.26 121.626L1783.39 122.464H1784.24V121.464ZM1784.24 145.368V144.368H1783.39L1783.26 145.206L1784.24 145.368ZM1820.24 145.368L1819.25 145.214C1815.83 167.171 1806.3 183.126 1792.6 193.606C1778.88 204.096 1760.9 209.168 1740.47 209.168V210.168V211.168C1761.22 211.168 1779.67 206.016 1793.81 195.194C1807.98 184.362 1817.74 167.917 1821.23 145.522L1820.24 145.368ZM1740.47 210.168V209.168C1716.04 209.168 1696.44 201.957 1682.95 188.999C1669.46 176.046 1661.98 157.245 1661.98 133.848H1660.98H1659.98C1659.98 157.683 1667.61 177.042 1681.56 190.441C1695.5 203.835 1715.65 211.168 1740.47 211.168V210.168ZM1660.98 133.848H1661.98C1661.98 110.03 1669.89 91.0861 1683.7 78.0922C1697.51 65.0912 1717.33 57.952 1741.33 57.952V56.952V55.952C1716.94 55.952 1696.59 63.2128 1682.33 76.6357C1668.05 90.0658 1659.98 109.57 1659.98 133.848H1660.98ZM1741.33 56.952V57.952C1763.19 57.952 1781.38 63.8077 1794.66 74.6468C1807.94 85.4779 1816.39 101.355 1818.67 121.576L1819.67 121.464L1820.66 121.352C1818.33 100.677 1809.65 84.2981 1795.93 73.0972C1782.21 61.9043 1763.54 55.952 1741.33 55.952V56.952ZM1819.67 121.464V120.464H1784.24V121.464V122.464H1819.67V121.464ZM1784.24 121.464L1785.23 121.302C1783.46 110.544 1778.28 102.309 1770.49 96.7804C1762.72 91.2654 1752.42 88.496 1740.47 88.496V89.496V90.496C1752.13 90.496 1761.99 93.1986 1769.34 98.4116C1776.66 103.611 1781.57 111.36 1783.26 121.626L1784.24 121.464ZM1740.47 89.496V88.496C1725.31 88.496 1714.07 92.6525 1706.62 100.47C1699.19 108.279 1695.69 119.582 1695.69 133.56H1696.69H1697.69C1697.69 119.89 1701.11 109.161 1708.07 101.85C1715.02 94.5475 1725.67 90.496 1740.47 90.496V89.496ZM1696.69 133.56H1695.69C1695.69 147.396 1699.19 158.627 1706.62 166.399C1714.07 174.18 1725.31 178.336 1740.47 178.336V177.336V176.336C1725.67 176.336 1715.02 172.284 1708.07 165.017C1701.11 157.741 1697.69 147.084 1697.69 133.56H1696.69ZM1740.47 177.336V178.336C1753.59 178.336 1763.97 175.128 1771.49 169.383C1779.03 163.629 1783.61 155.398 1785.23 145.53L1784.24 145.368L1783.26 145.206C1781.71 154.634 1777.36 162.387 1770.28 167.793C1763.19 173.208 1753.27 176.336 1740.47 176.336V177.336ZM1784.24 145.368V146.368H1820.24V145.368V144.368H1784.24V145.368ZM1940.47 118.872V119.872H1941.57L1941.47 118.78L1940.47 118.872ZM1859.55 118.872L1858.55 118.811L1858.48 119.872H1859.55V118.872ZM1979.93 133.272L1980.93 133.295L1980.93 133.287L1980.93 133.278L1979.93 133.272ZM1979.64 145.656V146.656H1980.62L1980.64 145.679L1979.64 145.656ZM1857.82 145.656V144.656H1856.71L1856.82 145.76L1857.82 145.656ZM1940.19 154.872V153.872H1939.48L1939.24 154.539L1940.19 154.872ZM1977.63 154.872L1978.59 155.125L1978.92 153.872H1977.63V154.872ZM1940.47 118.872L1941.47 118.78C1940.58 109.143 1936.19 101.53 1928.92 96.3497C1921.68 91.189 1911.67 88.496 1899.58 88.496V89.496V90.496C1911.39 90.496 1920.96 93.131 1927.76 97.9783C1934.54 102.806 1938.64 109.881 1939.48 118.964L1940.47 118.872ZM1899.58 89.496V88.496C1887.78 88.496 1877.84 91.1159 1870.67 96.2426C1863.46 101.392 1859.14 109.017 1858.55 118.811L1859.55 118.872L1860.55 118.932C1861.1 109.719 1865.13 102.656 1871.83 97.8694C1878.55 93.0601 1888.05 90.496 1899.58 90.496V89.496ZM1859.55 118.872V119.872H1940.47V118.872V117.872H1859.55V118.872ZM1820.09 133.848H1821.09C1821.09 110.03 1829 91.0861 1842.81 78.0922C1856.62 65.0912 1876.45 57.952 1900.44 57.952V56.952V55.952C1876.05 55.952 1855.7 63.2128 1841.44 76.6357C1827.17 90.0658 1819.09 109.57 1819.09 133.848H1820.09ZM1900.44 56.952V57.952C1924.44 57.952 1944.12 65.0911 1957.75 78.0177C1971.38 90.9373 1979.07 109.736 1978.93 133.266L1979.93 133.272L1980.93 133.278C1981.08 109.288 1973.22 89.9267 1959.13 76.5663C1945.04 63.2129 1924.83 55.952 1900.44 55.952V56.952ZM1979.93 133.272L1978.93 133.249L1978.64 145.633L1979.64 145.656L1980.64 145.679L1980.93 133.295L1979.93 133.272ZM1979.64 145.656V144.656H1857.82V145.656V146.656H1979.64V145.656ZM1857.82 145.656L1856.82 145.76C1857.86 155.638 1862 163.82 1869.22 169.517C1876.43 175.203 1886.61 178.336 1899.58 178.336V177.336V176.336C1886.92 176.336 1877.22 173.277 1870.46 167.947C1863.72 162.628 1859.8 154.97 1858.81 145.552L1857.82 145.656ZM1899.58 177.336V178.336C1911.06 178.336 1920.1 176.376 1926.96 172.482C1933.85 168.573 1938.46 162.757 1941.13 155.205L1940.19 154.872L1939.24 154.539C1936.73 161.675 1932.41 167.091 1925.98 170.742C1919.52 174.408 1910.85 176.336 1899.58 176.336V177.336ZM1940.19 154.872V155.872H1977.63V154.872V153.872H1940.19V154.872ZM1977.63 154.872L1976.66 154.619C1971.82 173.124 1962.09 186.735 1948.84 195.733C1935.58 204.739 1918.73 209.168 1899.58 209.168V210.168V211.168C1919.02 211.168 1936.3 206.669 1949.96 197.387C1963.64 188.097 1973.64 174.06 1978.59 155.125L1977.63 154.872ZM1899.58 210.168V209.168C1875.15 209.168 1855.55 201.957 1842.06 188.999C1828.58 176.046 1821.09 157.245 1821.09 133.848H1820.09H1819.09C1819.09 157.683 1826.73 177.042 1840.67 190.441C1854.62 203.835 1874.76 211.168 1899.58 211.168V210.168Z" fill="url(#paint1_linear_1_2797)" mask="url(#path-1-outside-1_1_2797)"/>
</g>
<defs>
<filter id="filter0_d_1_2797" x="0.391113" y="0.0799561" width="1984.54" height="219.376" filterUnits="userSpaceOnUse" color-interpolation-filters="sRGB">
<feFlood flood-opacity="0" result="BackgroundImageFix"/>
<feColorMatrix in="SourceAlpha" type="matrix" values="0 0 0 0 0 0 0 0 0 0 0 0 0 0 0 0 0 0 127 0" result="hardAlpha"/>
<feOffset dy="4"/>
<feGaussianBlur stdDeviation="2"/>
<feComposite in2="hardAlpha" operator="out"/>
<feColorMatrix type="matrix" values="0 0 0 0 0 0 0 0 0 0 0 0 0 0 0 0 0 0 0.25 0"/>
<feBlend mode="normal" in2="BackgroundImageFix" result="effect1_dropShadow_1_2797"/>
<feBlend mode="normal" in="SourceGraphic" in2="effect1_dropShadow_1_2797" result="shape"/>
</filter>
<linearGradient id="paint0_linear_1_2797" x1="1466.83" y1="14" x2="1466.83" y2="244" gradientUnits="userSpaceOnUse">
<stop stop-color="white" stop-opacity="0"/>
<stop offset="1" stop-color="#E9E9E9"/>
</linearGradient>
<linearGradient id="paint1_linear_1_2797" x1="1466.83" y1="14" x2="1466.83" y2="244" gradientUnits="userSpaceOnUse">
<stop stop-color="#E9E9E9"/>
<stop offset="1" stop-color="white" stop-opacity="0"/>
</linearGradient>
</defs>
</svg>
